<svg width="196" height="33" viewBox="0 0 196 33" fill="none" xmlns="http://www.w3.org/2000/svg">
<path d="M195.12 30.2264C195.249 30.3798 195.321 30.5778 195.321 30.7824C195.321 31.2444 194.965 31.619 194.526 31.619H188.105C187.879 31.619 187.663 31.5183 187.512 31.3385L178.83 21.0986H171.136V30.7841C171.136 31.2461 170.78 31.619 170.341 31.619H165.368C164.929 31.619 164.573 31.2444 164.573 30.7824V0.8514C164.573 0.3894 164.929 0.0132 165.368 0.0132H180.943C188.95 0.0132 194.125 4.1877 194.125 10.6442C194.125 12.6341 193.498 18.2754 186.733 20.3346L195.12 30.2264ZM151.782 18.1484V0.858C151.782 0.396 152.138 0.02145 152.577 0.02145H157.612C158.051 0.02145 158.407 0.396 158.407 0.858V18.15C158.407 26.9016 152.323 32.5578 142.71 32.5578C133.13 32.5578 127.047 27.0353 127.047 18.1484V0.858C127.047 0.396 127.403 0.02145 127.842 0.02145H132.879C133.318 0.02145 133.674 0.396 133.674 0.858V18.15C133.674 23.1528 136.716 25.5849 142.71 25.5849C148.559 25.5849 151.782 22.874 151.782 18.1484V18.1484ZM114.624 0.28215C114.776 0.1023 114.992 0 115.22 0H121.942C122.136 0 122.324 0.07425 122.469 0.20955C122.798 0.51645 122.829 1.04445 122.538 1.39095L110.24 16.0182L122.42 30.4359C122.549 30.5894 122.621 30.7874 122.621 30.992C122.621 31.454 122.265 31.8285 121.826 31.8285H115.088C114.861 31.8285 114.646 31.7262 114.494 31.548L105.81 21.2685L97.1314 31.548C96.9809 31.7262 96.7645 31.8285 96.5371 31.8285H89.801C89.6065 31.8285 89.4184 31.7543 89.2741 31.6173C88.9449 31.3104 88.9151 30.7824 89.2067 30.4359L101.379 16.0182L89.0436 1.3926C88.9151 1.2375 88.8429 1.0395 88.8429 0.83655C88.8429 0.37455 89.1989 0 89.6379 0H96.3709C96.5983 0 96.8146 0.1023 96.9667 0.2805L105.81 10.7679L114.624 0.28215ZM62.7781 0.44055C62.9176 0.16995 63.1857 0 63.479 0H69.3982C69.6898 0 69.9595 0.16995 70.0975 0.44055L85.5109 30.596C85.5737 30.7181 85.605 30.8534 85.605 30.992C85.605 31.454 85.2491 31.8285 84.81 31.8285H79.0931C78.7999 31.8285 78.5318 31.6602 78.3922 31.388L74.872 24.5025H57.9972L54.4739 31.3913C54.336 31.6619 54.0663 31.8302 53.7746 31.8302H48.0561C47.9244 31.8302 47.7958 31.7972 47.6798 31.7312C47.2925 31.5117 47.1467 31.0052 47.3552 30.5976L62.7781 0.44055ZM61.0893 18.4586H71.7831L66.4378 8.0025L61.0893 18.4602V18.4586ZM171.155 6.03405L171.136 15.0794H180.696C183.77 15.0794 185.402 14.3121 186.23 13.6686C187.149 12.9525 187.541 12.0516 187.541 10.6541C187.541 9.57 187.047 6.03405 180.696 6.03405H171.155Z" fill="#222222"/>
<path d="M47.4727 0.3663L31.8868 30.8006C31.7128 31.1405 31.8335 31.5629 32.1549 31.746C32.2522 31.8005 32.3588 31.8285 32.4685 31.8285H38.5116C38.7547 31.8285 38.9789 31.6883 39.0949 31.4622L54.6808 1.02795C54.8549 0.6897 54.7341 0.26565 54.4127 0.08415C54.3155 0.02805 54.2089 0 54.0991 0H48.056C47.813 0 47.5888 0.14025 47.4727 0.3663V0.3663Z" fill="#C92828"/>
<path d="M31.5732 0.3663L15.9857 30.8006C15.8132 31.1405 15.9324 31.5629 16.2539 31.746C16.3511 31.8005 16.4577 31.8285 16.5675 31.8285H22.6105C22.8536 31.8285 23.0778 31.6883 23.1938 31.4622L38.7797 1.02795C38.9538 0.6897 38.8346 0.26565 38.5132 0.08415C38.416 0.02805 38.3062 0 38.1965 0H32.1534C31.9103 0 31.6861 0.14025 31.5716 0.3663H31.5732Z" fill="#FF5824"/>
<path d="M15.6757 0.3663L0.0897705 30.8006C-0.0858455 31.1405 0.0348905 31.5629 0.35633 31.746C0.453546 31.8005 0.561738 31.8285 0.671498 31.8285H6.713C6.95604 31.8285 7.18027 31.6883 7.2963 31.4622L22.8822 1.02795C23.0578 0.6897 22.9371 0.26565 22.6157 0.08415C22.5169 0.02805 22.4102 0 22.3005 0H16.259C16.0144 0 15.7902 0.14025 15.6757 0.3663V0.3663Z" fill="#FA9043"/>
</svg>
